# xmcd
#
# Track frame offsets: 
#        182
#        19285
#        42242
#        66417
#        103160
#        128362
#
# Disc length: 2185 seconds
#
# Revision: 0
# Processed by: cddbd v1.5.2PL0 Copyright (c) Steve Scherf et al.
# Submitted via: ExactAudioCopy v0.99pb5
#
DISCID=4d088706
DTITLE=Nadine Renee - Don't Take Your Love Away (Single)
DYEAR=1900
DGENRE=
TTITLE0=Don't Take Your Love Away (Radio Edit)
TTITLE1=Don't Take Your Love Away (Original Version)
TTITLE2=Don't Take Your Love Away (Light Piano Version)
TTITLE3=Don't Take Your Love Away (Razor's Edge Anthem Vocal)
TTITLE4=Don't Take Your Love Away (Organo Mix)
TTITLE5=Don't Take Your Love Away (Razor's Edge Anthem Dub)
EXTD=
EXTT0=
EXTT1=
EXTT2=
EXTT3=
EXTT4=
EXTT5=
PLAYORDER=
